# xmcd CD database file
# Copyright (C) 1993-1996 Ti Kan
#
# Track frame offsets:
#  150
#  20563
#  43048
#  69703
#  91845
#  115882
#  131664
#  161097
#  179824
#  199990
#  217709
#  238834
#  260002
#  278475
#  302564
#  316002
#  336540
#
# Disc length: 4792 seconds
#
# Revision: 1
# Processed by: cddbd v1.5.2PL0 Copyright (c) Steve Scherf et al.
# Submitted via: Advanced CD Ripper Pro 2.0
#
DISCID=fd12b611
DTITLE=布仁巴雅尔 - 情动草原
DYEAR=2003
DGENRE=other
TTITLE0=牧马人
TTITLE1=草原恋
TTITLE2=西海情歌
TTITLE3=祝福妈妈
TTITLE4=成吉思汗的传说
TTITLE5=坐上火车去拉萨
TTITLE6=父亲的草原母亲的河
TTITLE7=我的喜马拉雅
TTITLE8=敖包相会
TTITLE9=月亮之上
TTITLE10=天路
TTITLE11=天边
TTITLE12=天堂
TTITLE13=神奇的西藏
TTITLE14=欢乐的玩吧
TTITLE15=银色的毡房
TTITLE16=神奇的九寨
EXTD=
EXTT0=
EXTT1=
EXTT2=
EXTT3=
EXTT4=
EXTT5=
EXTT6=
EXTT7=
EXTT8=
EXTT9=
EXTT10=
EXTT11=
EXTT12=
EXTT13=
EXTT14=
EXTT15=
EXTT16=
PLAYORDER=
